<?xml version="1.0" encoding="UTF-8" standalone="no"?>
<!-- License: MIT. Made by Andreas Mehlsen: https://github.com/andreasbm/web-skills/ -->

<svg
   width="800px"
   height="800px"
   viewBox="0 0 73 73"
   version="1.1"
   id="svg3"
   sodipodi:docname="postgresql.svg"
   inkscape:version="1.3.2 (1:1.3.2+202404261509+091e20ef0f)"
   xmlns:inkscape="http://www.inkscape.org/namespaces/inkscape"
   xmlns:sodipodi="http://sodipodi.sourceforge.net/DTD/sodipodi-0.dtd"
   xmlns="http://www.w3.org/2000/svg"
   xmlns:svg="http://www.w3.org/2000/svg">
  <sodipodi:namedview
     id="namedview3"
     pagecolor="#ffffff"
     bordercolor="#000000"
     borderopacity="0.25"
     inkscape:showpageshadow="2"
     inkscape:pageopacity="0.0"
     inkscape:pagecheckerboard="0"
     inkscape:deskcolor="#d1d1d1"
     inkscape:zoom="0.74511377"
     inkscape:cx="349.61104"
     inkscape:cy="348.26896"
     inkscape:window-width="1878"
     inkscape:window-height="1011"
     inkscape:window-x="0"
     inkscape:window-y="0"
     inkscape:window-maximized="1"
     inkscape:current-layer="postgresql-original" />
  <title
     id="title1">databases-and-servers/databases/postgresql</title>
  <desc
     id="desc1">Created with Sketch.</desc>
  <defs
     id="defs1" />
  <g
     id="databases-and-servers/databases/postgresql"
     stroke="none"
     stroke-width="1"
     fill="none"
     fill-rule="evenodd">
    <g
       id="postgresql-original"
       transform="translate(10.000000, 13.000000)"
       fill-rule="nonzero">
      <path
         id="path2"
         style="display:inline;fill:#336791;fill-opacity:1"
         d="m 37.612835,-0.60650679 c -3.073443,-0.0351653 -5.554976,0.7091296 -6.233872,0.9577685 l -0.0086,0.00303 0.0086,-0.0025 c -0.07274,0.026701 -0.101749,0.040374 -0.131528,0.054001 -1.095339,-0.2740239 -2.285918,-0.4468013 -3.587266,-0.4681858 -2.379652,-0.0389052 -4.43048,0.5380699 -6.128899,1.70309569 C 20.100697,1.0919336 12.013775,-1.7665773 7.0102228,1.778647 4.2900873,3.705289 3.0349223,7.1543345 3.2785969,12.02948 c 0.082328,1.644492 1.0197935,6.704252 2.4992163,11.551679 1.943604,6.368221 4.0506436,9.970809 6.2627438,10.708865 0.255673,0.08481 0.550668,0.144717 0.87543,0.144717 0.800526,0 1.782606,-0.361586 2.807363,-1.594023 1.988039,-2.391731 3.660344,-4.158671 3.960999,-4.474993 0.892402,0.485472 1.874969,0.756107 2.880613,0.774912 0.0028,0.05287 0.01075,0.105013 0.01586,0.157549 -0.18392,0.21916 -0.385167,0.454805 -0.516133,0.620928 -0.692137,0.879131 -0.836531,1.061958 -3.051529,1.518278 -0.613115,0.126181 -2.241808,0.462173 -2.265388,1.582083 -0.02069,0.99828 1.340082,1.606 2.147227,1.807891 0.779014,0.194851 1.541816,0.29371 2.266636,0.29371 1.807856,0 3.378191,-0.622005 4.620065,-1.795949 -0.03982,4.49881 0.131904,9.125332 0.674573,10.4827 0.441428,1.102948 1.520424,3.799885 4.926074,3.799885 0.499761,-4.14e-4 1.04954,-0.05836 1.654798,-0.187846 3.561618,-0.763708 5.108467,-2.337431 5.706689,-5.807208 0.332323,-1.926514 0.889456,-6.456633 1.138487,-8.786198 0.552467,0.185667 1.280742,0.270007 2.071481,0.270007 1.585334,0 3.417668,-0.337647 4.565708,-0.87133 1.281257,-0.594915 3.595525,-2.049966 3.183057,-3.297298 -0.209751,-0.634217 -0.895675,-0.835534 -2.03958,-0.599719 -3.655203,0.7545 -4.86138,0.179809 -5.230478,-0.129746 2.719477,-4.132822 4.960414,-9.130429 6.165612,-13.797464 1.218334,-4.7171083 1.215318,-8.3188622 -0.008,-9.8822679 -2.585697,-3.3042926 -6.381807,-5.07633109 -10.977286,-5.12514889 z m 0.05757,0.7314257 c 3.360661,0.040078 7.447991,1.04810469 10.441174,4.87242919 2.194312,2.8037048 -0.348402,14.2609229 -6.431164,23.2863939 0,0 0.395984,1.950665 6.15688,0.762081 2.524864,-0.520861 1.006044,1.463304 -1.554815,2.651062 -1.189412,0.552715 -3.215258,0.872153 -4.763357,0.801823 l -0.510964,-0.04473 c -2.103709,-0.457147 -1.795944,0.52575 -2.161663,3.573543 l -0.317236,0.951531 c -0.02524,2.010211 -0.420499,1.677737 -0.595085,3.926245 -0.246571,3.162391 -2.01545,5.058305 -5.429375,5.789741 -4.085788,0.875408 -4.564155,-2.061852 -5.044058,-3.367517 -0.480315,-1.305666 -0.432356,-2.977589 -0.360366,-5.412266 0.07157,-2.434676 -0.356218,-5.120489 -0.96561,-5.608667 l 0.09143,-0.364822 c -2.285742,3.199624 -5.668999,2.681724 -7.131045,2.316004 -1.206372,-0.301594 -3.053943,-1.455516 0.09107,-2.103384 3.108193,-0.639593 2.651514,-0.944375 4.206233,-2.681538 -0.05875,-0.38144 -0.0738,-0.703844 -0.04153,-1.033157 l -0.10337,0.08769 c -1.328418,0.129077 -2.595596,-0.229925 -3.654277,-0.932818 0,0 -2.130974,2.243074 -4.33687,4.895777 C 9.221222,39.745131 4.1615148,15.726347 3.9786555,12.068332 3.1189684,-5.1249937 21.605054,2.4906465 21.605054,2.4906465 c 1.500523,-1.1376994 3.477744,-1.86386919 6.084522,-1.82125739 1.431848,0.023168 2.705614,0.1638811 3.843728,0.40010989 l 0.05596,-0.00998 c 0.08647,-0.046956 2.720476,-0.97467759 6.081135,-0.93459959 z m 0.115667,0.5916993 c -1.747718,-0.037621 -3.236123,0.1975864 -4.316731,0.43468499 2.542255,1.0893367 4.400548,2.7354882 5.663916,4.2062329 2.266709,2.6382206 3.377852,5.5483539 3.469282,6.5197419 0.01385,0.146572 -8.11e-4,0.264 -0.02691,0.366782 0.03696,1.018433 -0.09045,1.885839 -0.219214,2.721638 -0.104667,0.679723 -0.213111,1.382511 -0.239174,2.203723 -0.02524,0.77529 0.07373,1.598539 0.178401,2.46981 0.254702,2.118017 0.536577,4.50798 -0.935669,6.917356 0.03152,0.03958 0.0657,0.08426 0.09624,0.122439 0.07633,0.09535 0.134804,0.18242 0.205669,0.27375 C 47.364495,18.014193 49.340407,7.6183317 47.551422,5.3320503 45.224723,2.3591386 41.939292,0.80639301 37.786068,0.71661821 Z M 27.638248,1.2573457 c -2.686624,-0.044681 -4.8901,0.7814373 -6.545762,2.4532349 -2.677885,2.7044843 -3.342664,6.9598504 -3.509382,9.1563674 0.146847,-0.08406 0.29557,-0.168547 0.475676,-0.259849 0.658624,-0.333862 1.979273,-0.916422 3.421875,-1.065771 2.389996,-0.246985 3.965404,0.817459 4.437031,2.997705 1.272983,5.886249 0.100834,8.489866 -0.755129,10.391272 -0.159278,0.354135 -0.309841,0.68837 -0.43023,1.012305 l -0.10622,0.285512 c -0.269774,0.723428 -0.502711,1.377929 -0.633404,1.962588 0.170299,-0.05183 0.342701,-0.08644 0.519163,-0.08644 0.409159,0 0.744755,0.138541 0.966501,0.230799 0.706616,0.292904 1.296163,1.001128 1.538597,1.84799 0.03473,0.12127 0.04725,0.23983 0.06576,0.359119 0.03442,0.08321 0.0544,0.173442 0.05168,0.269294 -0.165895,5.932998 0.06943,11.309618 0.547679,12.506062 0.74633,1.865415 1.878238,3.497156 5.078276,2.811641 3.037864,-0.65159 4.17565,-1.803333 4.682444,-4.741079 0.387837,-2.248224 1.152665,-8.624438 1.250766,-9.91417 -0.128155,-2.713398 1.381748,-3.193277 2.156138,-3.411895 -0.108805,-0.164654 -0.26353,-0.358371 -0.423635,-0.558193 -0.455495,-0.569263 -1.079432,-1.348533 -1.560161,-2.514365 -0.0753,-0.182032 -0.311165,-0.605289 -0.584214,-1.095535 -1.480665,-2.655182 -4.561452,-8.180349 -2.582268,-11.009704 0.915951,-1.309389 2.739962,-1.824877 5.427414,-1.537349 C 40.336254,8.9382727 36.571463,1.4037986 27.638248,1.2573457 Z M 13.019178,1.3731904 C 11.143615,1.4066412 9.2671613,1.7965731 7.7706989,2.8576069 5.4448277,4.5066505 4.3770523,7.5705411 4.5967316,11.963716 c 0.06909,1.38551 0.9449792,6.323529 2.4434326,11.23177 1.735095,5.685187 3.7095868,9.27249 5.4177908,9.842168 0.268084,0.08936 1.083994,0.361295 2.250239,-1.041177 1.892537,-2.276753 3.411272,-3.894541 3.872957,-4.382495 -0.190436,-0.159879 -0.375713,-0.328185 -0.551243,-0.511321 -1.557199,-1.624633 -2.265918,-3.875607 -1.944053,-6.175415 0.349584,-2.497561 0.218791,-4.702247 0.14846,-5.886694 -0.01877,-0.317928 -0.03136,-0.542781 -0.03155,-0.706653 -3.9e-5,-0.0012 -6.8e-4,-0.0022 -7.13e-4,-0.0034 -3.6e-5,-0.0013 4.1e-5,-0.01286 0,-0.01444 6e-6,-0.0017 -3.64e-4,-0.0058 -3.56e-4,-0.0075 3e-6,-5.47e-4 3.53e-4,-0.0018 3.56e-4,-0.0023 -0.0099,-0.39724 -0.116317,-7.4151721 3.952623,-11.5247682 0.05521,-0.055755 0.115952,-0.1025283 0.172163,-0.1566577 C 18.870899,2.1398869 15.982305,1.320343 13.019178,1.3731904 Z M 40.009395,12.588208 c -1.621337,-0.04885 -2.704351,0.303478 -3.229038,1.053117 -1.505486,2.1517 1.409122,7.378163 2.653557,9.610123 0.317729,0.569263 0.547035,0.980888 0.652117,1.234904 0.133461,0.323657 0.281952,0.602399 0.433972,0.863489 0.9066,-1.854702 0.683757,-3.730988 0.464983,-5.552883 -0.106323,-0.882027 -0.215622,-1.794366 -0.18749,-2.669776 0.02896,-0.900644 0.143686,-1.64355 0.254145,-2.362163 0.105328,-0.683798 0.201276,-1.341091 0.210303,-2.066491 -0.443899,-0.05659 -0.868728,-0.09876 -1.252549,-0.11032 z m -17.871811,0.239353 c -1.837007,1.92e-4 -4.087158,1.165057 -4.61169,1.663887 l 0.02566,0.47122 c 0.07281,1.23037 0.208579,3.519911 -0.158796,6.147791 -0.265187,1.896854 0.314047,3.748144 1.589924,5.078633 1.008208,1.051648 2.334892,1.632163 3.698477,1.632163 h 0.02816 c 0.152662,-0.643318 0.406339,-1.322701 0.679388,-2.054551 l 0.105508,-0.283731 c 0.13611,-0.365717 0.295299,-0.719822 0.464091,-1.094643 0.823696,-1.830247 1.849296,-4.108652 0.668157,-9.570022 -0.233746,-1.081849 -0.800951,-1.707848 -1.733037,-1.91429 -0.239331,-0.05285 -0.493412,-0.07648 -0.755842,-0.07646 z M 38.9921,13.327654 c 0.512172,0 0.851486,0.15019 0.885411,0.392624 0.02193,0.156796 -0.09856,0.398927 -0.305831,0.617363 -0.136936,0.143558 -0.424478,0.392074 -0.816259,0.44627 l -0.153094,0.01051 c -0.577536,0 -1.075964,-0.449385 -1.116921,-0.74105 -0.04758,-0.349996 0.528652,-0.615948 1.121912,-0.698276 0.130732,-0.0182 0.260257,-0.02745 0.384782,-0.02745 z m -16.707304,0.366247 c 0.129492,0 0.264413,0.0095 0.40011,0.02852 0.316899,0.04385 0.611003,0.135245 0.8282,0.256462 0.376476,0.210165 0.40424,0.444818 0.387278,0.566035 -0.04634,0.336346 -0.58125,0.835686 -1.224568,0.835686 l -0.16842,-0.01158 c -0.372339,-0.05171 -0.748682,-0.286332 -1.006424,-0.628057 -0.0906,-0.119975 -0.238428,-0.352471 -0.209055,-0.560154 0.04179,-0.304488 0.413272,-0.486904 0.992879,-0.486904 z m 0.04438,0.220105 c -0.03461,-6.19e-4 -0.06851,-4.68e-4 -0.101765,3.57e-4 0.133007,-0.0033 0.277663,0.0048 0.427734,0.02566 -0.112553,-0.01567 -0.222138,-0.02416 -0.325969,-0.02602 z m 0.325969,0.02602 c 0.150177,0.02089 0.29156,0.05262 0.418645,0.09214 -0.127085,-0.03952 -0.268468,-0.07125 -0.418645,-0.09214 z m 0.418645,0.09214 c 0.127086,0.03952 0.239923,0.08686 0.33292,0.138835 -0.093,-0.05197 -0.205834,-0.09931 -0.33292,-0.138835 z m 0.33292,0.138835 c 0.093,0.05197 0.166134,0.108574 0.214046,0.166817 -0.04791,-0.05824 -0.121049,-0.114844 -0.214046,-0.166817 z m 0.214046,0.166817 c 0.02396,0.02912 0.0416,0.05869 0.05222,0.08822 -0.01062,-0.02953 -0.02826,-0.0591 -0.05222,-0.08822 z m 0.05222,0.08822 c 0.01062,0.02953 0.01424,0.05905 0.01016,0.08822 0.0041,-0.02917 4.64e-4,-0.05869 -0.01016,-0.08822 z m 0.01016,0.08822 c -0.0082,0.05833 -0.04631,0.132587 -0.10836,0.209768 0.06205,-0.07718 0.100189,-0.151435 0.10836,-0.209768 z m -0.10836,0.209768 c -0.06205,0.07718 -0.148024,0.157349 -0.25165,0.22759 0.103626,-0.07024 0.1896,-0.150409 0.25165,-0.22759 z m -0.25165,0.22759 c -0.103626,0.07024 -0.224973,0.130548 -0.357871,0.168064 0.132897,-0.03752 0.254245,-0.09782 0.357871,-0.168064 z m -0.357871,0.168064 c -0.06645,0.01876 -0.135813,0.03186 -0.207273,0.0376 0.07146,-0.0057 0.140824,-0.01885 0.207273,-0.0376 z m -0.207273,0.0376 c -0.07146,0.0057 -0.144994,0.0041 -0.219927,-0.0064 0.07493,0.0105 0.148467,0.01216 0.219927,0.0064 z m -0.219927,-0.0064 c -0.07509,-0.01039 -0.147953,-0.02927 -0.217966,-0.05471 0.07001,0.02545 0.142878,0.04432 0.217966,0.05471 z m -0.217966,-0.05471 c -0.07001,-0.02545 -0.13712,-0.05741 -0.200679,-0.09428 0.06356,0.03687 0.130666,0.06883 0.200679,0.09428 z M 22.11941,15.00189 c -0.127118,-0.07374 -0.240075,-0.166836 -0.333098,-0.264482 0.09302,0.09765 0.20598,0.190744 0.333098,0.264482 z m -0.333098,-0.264482 c -0.09302,-0.09765 -0.166153,-0.199953 -0.214045,-0.292464 0.04789,0.09251 0.121022,0.194818 0.214045,0.292464 z m -0.214045,-0.292464 c -0.04789,-0.09251 -0.07047,-0.175138 -0.0622,-0.233471 -0.0083,0.05833 0.01431,0.140961 0.0622,0.233471 z m -0.0622,-0.233471 c 0.006,-0.04375 0.02892,-0.08359 0.06612,-0.118875 -0.0372,0.03528 -0.06015,0.07512 -0.06612,0.118875 z m 0.06612,-0.118875 c 0.0372,-0.03528 0.08861,-0.06602 0.151846,-0.09161 -0.06324,0.02558 -0.114648,0.05632 -0.151846,0.09161 z m 0.151846,-0.09161 c 0.06324,-0.02558 0.138155,-0.04595 0.222244,-0.0606 -0.08409,0.01465 -0.159008,0.03501 -0.222244,0.0606 z m 0.222244,-0.0606 c 0.08409,-0.01464 0.177381,-0.02355 0.277136,-0.02602 -0.09976,0.0025 -0.193048,0.01138 -0.277136,0.02602 z m 0.335058,0.193193 c 0.109633,0 0.223854,0.0079 0.339693,0.02442 -0.115839,-0.01655 -0.23006,-0.02442 -0.339693,-0.02442 z m 0,0 c -0.167964,0 -0.29651,0.01889 -0.388347,0.04295 0.09184,-0.02406 0.220382,-0.04295 0.388347,-0.04295 z m -0.388347,0.04295 c -0.09184,0.02407 -0.146964,0.05331 -0.168064,0.07378 0.0211,-0.02048 0.07623,-0.04972 0.168064,-0.07378 z m -0.168064,0.07378 c 0.0047,0.03599 0.0305,0.09267 0.07378,0.15844 -0.04329,-0.06577 -0.06913,-0.122447 -0.07378,-0.15844 z m 0.07378,0.15844 c 0.04329,0.06577 0.104027,0.140614 0.178758,0.212976 -0.07473,-0.07236 -0.135469,-0.14721 -0.178758,-0.212976 z m 0.178758,0.212976 c 0.07473,0.07236 0.16336,0.142221 0.262343,0.198006 -0.09898,-0.05579 -0.187612,-0.125643 -0.262343,-0.198006 z m 0.262343,0.198006 c 0.09898,0.05578 0.20832,0.0975 0.324366,0.113528 -0.116046,-0.01603 -0.225382,-0.05774 -0.324366,-0.113528 z m 0.381219,-0.661741 c 0.130628,0.0182 0.245833,0.04359 0.345752,0.07254 -0.09992,-0.02894 -0.215124,-0.05433 -0.345752,-0.07254 z m 0.345752,0.07254 c 0.09992,0.02894 0.184579,0.06148 0.254145,0.0941 -0.06957,-0.03263 -0.154226,-0.06516 -0.254145,-0.0941 z m 0.254145,0.0941 c 0.06957,0.03262 0.124039,0.0652 0.163609,0.09446 -0.03957,-0.02925 -0.09404,-0.06183 -0.163609,-0.09446 z m 0.163609,0.09446 c 0.03957,0.02925 0.06421,0.05514 0.07414,0.07396 -0.0099,-0.01882 -0.03457,-0.04471 -0.07414,-0.07396 z m 0.07414,0.07396 c -0.0094,0.02762 -0.0364,0.06941 -0.07842,0.116557 0.04201,-0.04715 0.06901,-0.08894 0.07842,-0.116557 z m -0.07842,0.116557 c -0.04201,0.04715 -0.09907,0.09958 -0.168242,0.148638 0.06917,-0.04906 0.126228,-0.101489 0.168242,-0.148638 z m -0.168242,0.148638 c -0.06917,0.04906 -0.150608,0.0948 -0.241492,0.128142 0.09088,-0.03334 0.172321,-0.07908 0.241492,-0.128142 z m -0.241492,0.128142 c -0.09088,0.03334 -0.191194,0.05436 -0.298344,0.05436 0.10715,0 0.207461,-0.02102 0.298344,-0.05436 z m 18.598782,14.329814 c -0.12494,0.04923 -0.240433,0.08163 -0.322761,0.104795 -0.653659,0.183273 -1.329728,0.37312 -1.239539,2.111939 0.144798,0.146039 0.869362,0.397992 2.369471,0.333454 1.333796,-0.05709 2.740269,-0.347128 3.584235,-0.738911 1.079366,-0.501414 1.800083,-1.061992 2.173247,-1.444673 l -0.206738,0.03814 c -2.917889,0.60236 -4.982009,0.521992 -6.134602,-0.238818 -0.08233,-0.0542 -0.156291,-0.110489 -0.223313,-0.165926 z m -17.061077,0.208164 c -0.07281,0 -0.294456,-3.5e-5 -0.667622,0.417398 -0.315245,0.352067 -0.542476,0.640483 -0.742297,0.894499 -0.862169,1.094673 -1.257169,1.466185 -3.822163,1.99449 -0.625941,0.12825 -0.94695,0.258931 -1.106228,0.345396 0.198995,0.1539 0.597803,0.359455 1.041711,0.470329 0.674761,0.168794 1.329117,0.254502 1.94637,0.254502 1.880721,0 3.390906,-0.778533 4.487646,-2.314221 0.228782,-0.320211 0.159962,-0.726951 0.09874,-0.940837 -0.12825,-0.448047 -0.446662,-0.85552 -0.774734,-0.991631 -0.177895,-0.07364 -0.325722,-0.129925 -0.461419,-0.129925 z" />
    </g>
  </g>
</svg>
